<svg width="27" height="26" viewBox="0 0 27 26" fill="none" xmlns="http://www.w3.org/2000/svg">
<path d="M14.8279 0.5C16.281 0.50375 17.0185 0.51125 17.6553 0.52875L17.9059 0.5375C18.1953 0.5475 18.4807 0.56 18.8256 0.575C20.1999 0.6375 21.1377 0.8475 21.9605 1.15625C22.813 1.47375 23.5311 1.90375 24.2493 2.5975C24.9064 3.22217 25.4146 3.97809 25.7386 4.8125C26.0576 5.60875 26.2746 6.51625 26.3392 7.8475C26.3547 8.18 26.3676 8.45625 26.378 8.7375L26.3857 8.98C26.4051 9.595 26.4128 10.3088 26.4154 11.715L26.4167 12.6475V14.285C26.4199 15.1968 26.4099 16.1085 26.387 17.02L26.3793 17.2625C26.3689 17.5437 26.356 17.82 26.3405 18.1525C26.2759 19.4837 26.0563 20.39 25.7386 21.1875C25.4146 22.0219 24.9064 22.7778 24.2493 23.4025C23.6038 24.0384 22.8227 24.5302 21.9605 24.8438C21.1377 25.1525 20.1999 25.3625 18.8256 25.425L17.9059 25.4625L17.6553 25.47C17.0185 25.4875 16.281 25.4963 14.8279 25.4988L13.8643 25.5H12.1735C11.2309 25.5032 10.2883 25.4936 9.34604 25.4712L9.09546 25.4638C8.78883 25.4525 8.48227 25.4396 8.17579 25.425C6.80146 25.3625 5.86371 25.1525 5.03963 24.8438C4.17787 24.5301 3.3972 24.0382 2.75208 23.4025C2.09456 22.778 1.58585 22.022 1.2615 21.1875C0.94246 20.3912 0.72546 19.4837 0.660876 18.1525L0.622126 17.2625L0.615668 17.02C0.591858 16.1085 0.581093 15.1968 0.583376 14.285V11.715C0.579801 10.8033 0.589274 9.8915 0.611793 8.98L0.620835 8.7375C0.631168 8.45625 0.644085 8.18 0.659585 7.8475C0.724168 6.51625 0.941168 5.61 1.26021 4.8125C1.58531 3.97775 2.09491 3.2218 2.75338 2.5975C3.39812 1.96194 4.17833 1.47009 5.03963 1.15625C5.86371 0.8475 6.80017 0.6375 8.17579 0.575C8.51938 0.56 8.80613 0.5475 9.09546 0.5375L9.34604 0.53C10.2879 0.507791 11.2301 0.498207 12.1722 0.50125L14.8279 0.5ZM13.5 6.75C11.7872 6.75 10.1445 7.40848 8.93331 8.58058C7.72214 9.75268 7.04171 11.3424 7.04171 13C7.04171 14.6576 7.72214 16.2473 8.93331 17.4194C10.1445 18.5915 11.7872 19.25 13.5 19.25C15.2129 19.25 16.8556 18.5915 18.0668 17.4194C19.2779 16.2473 19.9584 14.6576 19.9584 13C19.9584 11.3424 19.2779 9.75268 18.0668 8.58058C16.8556 7.40848 15.2129 6.75 13.5 6.75ZM13.5 9.25C14.0089 9.24992 14.5128 9.34683 14.983 9.53521C15.4532 9.72359 15.8804 9.99975 16.2403 10.3479C16.6002 10.6961 16.8857 11.1094 17.0805 11.5644C17.2753 12.0193 17.3756 12.5069 17.3757 12.9994C17.3758 13.4918 17.2756 13.9795 17.081 14.4345C16.8863 14.8895 16.601 15.3029 16.2412 15.6512C15.8814 15.9995 15.4543 16.2758 14.9842 16.4643C14.5141 16.6528 14.0102 16.7499 13.5013 16.75C12.4736 16.75 11.488 16.3549 10.7613 15.6517C10.0346 14.9484 9.62634 13.9946 9.62634 13C9.62634 12.0054 10.0346 11.0516 10.7613 10.3483C11.488 9.64509 12.4736 9.25 13.5013 9.25M20.2826 4.875C19.8544 4.875 19.4437 5.03962 19.1409 5.33265C18.8381 5.62567 18.668 6.0231 18.668 6.4375C18.668 6.8519 18.8381 7.24933 19.1409 7.54235C19.4437 7.83538 19.8544 8 20.2826 8C20.7108 8 21.1215 7.83538 21.4243 7.54235C21.7271 7.24933 21.8972 6.8519 21.8972 6.4375C21.8972 6.0231 21.7271 5.62567 21.4243 5.33265C21.1215 5.03962 20.7108 4.875 20.2826 4.875Z" fill="white"/>
</svg>
